<svg id="visual" viewBox="0 0 960 540" width="960" height="540" xmlns="http://www.w3.org/2000/svg" xmlns:xlink="http://www.w3.org/1999/xlink" version="1.1"><rect x="0" y="0" width="960" height="540" fill="#11213c"></rect><defs><linearGradient id="grad1_0" x1="43.8%" y1="0%" x2="100%" y2="100%"><stop offset="14.444444444444446%" stop-color="#11213c" stop-opacity="1"></stop><stop offset="85.55555555555554%" stop-color="#11213c" stop-opacity="1"></stop></linearGradient></defs><defs><linearGradient id="grad2_0" x1="0%" y1="0%" x2="56.3%" y2="100%"><stop offset="14.444444444444446%" stop-color="#11213c" stop-opacity="1"></stop><stop offset="85.55555555555554%" stop-color="#11213c" stop-opacity="1"></stop></linearGradient></defs><g transform="translate(960, 0)"><path d="M0 486C-46.3 440.7 -92.6 395.5 -157.3 379.7C-222 363.9 -305.1 377.7 -343.7 343.7C-382.2 309.6 -376.3 227.9 -392.6 162.6C-409 97.4 -447.5 48.7 -486 0L0 0Z" fill="#fd6e42"></path></g><g transform="translate(0, 540)"><path d="M0 -486C44.3 -438.3 88.6 -390.6 155.8 -376C222.9 -361.5 312.8 -380.1 343.7 -343.7C374.5 -307.2 346.4 -215.7 360.3 -149.2C374.2 -82.8 430.1 -41.4 486 0L0 0Z" fill="#fd6e42"></path></g></svg>